<?xml version="1.0" encoding="UTF-8"?>
<svg version="1.1" xmlns="http://www.w3.org/2000/svg" width="256" height="256">
<path d="M0 0 C14.19 0 28.38 0 43 0 C43 0.66 43 1.32 43 2 C44.32 1.67 45.64 1.34 47 1 C47 1.66 47 2.32 47 3 C48.2375 2.938125 49.475 2.87625 50.75 2.8125 C54.52169529 2.79921938 56.14565104 3.45147414 59 6 C60.32303717 6.3721042 61.65737935 6.70630173 63 7 C64.34882408 7.63474075 65.6846659 8.29848848 67 9 C67.99 9.495 67.99 9.495 69 10 C71.77649181 12.00524409 74.5237848 14.04798575 77.2734375 16.08984375 C79.8271932 17.9887188 79.8271932 17.9887188 82.16015625 19.0390625 C84.36263493 20.18940168 85.50831914 21.51031574 87.0625 23.4375 C88.49009667 25.19075533 89.88026524 26.88214589 91.4921875 28.46875 C93.21361114 30.21693152 94.61531621 32.08233804 96.0625 34.0625 C97.63624466 36.21288393 99.11213037 38.11213037 101 40 C101.66666667 41.33333333 102.33333333 42.66666667 103 44 C103.72703125 44.89525391 103.72703125 44.89525391 104.46875 45.80859375 C106.17632339 48.25234037 106.81924028 50.31214667 107.5625 53.1875 C108.19790517 55.78795802 108.19790517 55.78795802 109 58 C109.66 58.33 110.32 58.66 111 59 C111.40729228 61.32156597 111.74438677 63.6568787 112 66 C112.66 66 113.32 66 114 66 C114.33 70.29 114.66 74.58 115 79 C115.66 79 116.32 79 117 79 C116.98259766 79.8353125 116.98259766 79.8353125 116.96484375 80.6875 C116.90323567 85.89778343 117.25000656 90.8437951 118 96 C118.33 96 118.66 96 119 96 C119 101.94 119 107.88 119 114 C118.67 114 118.34 114 118 114 C117.83257698 116.62495379 117.6660283 119.24995795 117.5 121.875 C117.45230469 122.62136719 117.40460938 123.36773437 117.35546875 124.13671875 C117.09504139 128.06528636 117.09504139 128.06528636 117 132 C116.34 132 115.68 132 115 132 C115.33 133.32 115.66 134.64 116 136 C115.34 136 114.68 136 114 136 C114.02320313 136.62648437 114.04640625 137.25296875 114.0703125 137.8984375 C114.08835938 138.71570313 114.10640625 139.53296875 114.125 140.375 C114.14820313 141.18710938 114.17140625 141.99921875 114.1953125 142.8359375 C114 145 114 145 112 147 C112 148.32 112 149.64 112 151 C111.34 151 110.68 151 110 151 C110.33 151.99 110.66 152.98 111 154 C110.34 154 109.68 154 109 154 C109.0309375 155.175625 109.0309375 155.175625 109.0625 156.375 C109 159 109 159 108 161 C107.34 161 106.68 161 106 161 C106 162.32 106 163.64 106 165 C104.5 166.625 104.5 166.625 103 168 C103 168.66 103 169.32 103 170 C101.66666667 171.33333333 100.33333333 172.66666667 99 174 C96.07812646 177.65624817 93.37866433 181.38036746 90.9375 185.375 C88.80596991 188.26287948 87.41073211 189.05257441 84 190 C84 190.66 84 191.32 84 192 C79.78426795 195.82357093 75.60310694 198.99425414 70.25 201.0625 C67.83767007 201.77997664 67.83767007 201.77997664 67 204 C65.33333333 204.33333333 63.66666667 204.66666667 62 205 C61.67 205.66 61.34 206.32 61 207 C56.68906615 208.62857501 52.61571611 210 48 210 C47.67 210.66 47.34 211.32 47 212 C46.01 211.67 45.02 211.34 44 211 C44 211.66 44 212.32 44 213 C42.948125 212.979375 41.89625 212.95875 40.8125 212.9375 C37.67295096 212.98896802 35.03116604 213.26517187 32 214 C32 214.33 32 214.66 32 215 C23.42 215 14.84 215 6 215 C6 214.34 6 213.68 6 213 C2.04 213 -1.92 213 -6 213 C-6 212.34 -6 211.68 -6 211 C-6.78375 211.20625 -7.5675 211.4125 -8.375 211.625 C-9.24125 211.74875 -10.1075 211.8725 -11 212 C-11.66 211.34 -12.32 210.68 -13 210 C-14.32 210 -15.64 210 -17 210 C-17 209.34 -17 208.68 -17 208 C-19.31 207.67 -21.62 207.34 -24 207 C-24 206.34 -24 205.68 -24 205 C-25.98 204.67 -27.96 204.34 -30 204 C-30 203.34 -30 202.68 -30 202 C-32.65228812 200.92474806 -35.28368454 199.90543849 -38 199 C-43.66666667 193.33333333 -49.33333333 187.66666667 -55 182 C-55.84498047 181.18595703 -55.84498047 181.18595703 -56.70703125 180.35546875 C-58.51615342 178.45889656 -59.67249529 176.25098625 -61 174 C-61.66 173.34 -62.32 172.68 -63 172 C-66 166.46153846 -66 166.46153846 -66 164 C-66.66 163.67 -67.32 163.34 -68 163 C-68.88635295 160.44730352 -69.53559704 157.86380263 -70.21875 155.25 C-70.7671887 152.82546793 -70.7671887 152.82546793 -73 152 C-73.3548954 150.00371336 -73.68578929 148.00309329 -74 146 C-74.5259375 145.071875 -74.5259375 145.071875 -75.0625 144.125 C-76.53889726 140.77849954 -76.12106159 137.63184762 -76 134 C-76.66 133.67 -77.32 133.34 -78 133 C-78.97842873 127.43279845 -79.13666632 121.98342625 -79.09765625 116.34375 C-79.0962413 115.55601196 -79.09482635 114.76827393 -79.09336853 113.95666504 C-79.08782612 111.47106936 -79.07528485 108.98556789 -79.0625 106.5 C-79.05747754 104.80208465 -79.05291595 103.10416786 -79.04882812 101.40625 C-79.03787564 97.27079771 -79.02065166 93.13541476 -79 89 C-78.67 89 -78.34 89 -78 89 C-76.80911014 83.61972975 -75.7080481 78.54708616 -76 73 C-75.34 73 -74.68 73 -74 73 C-73.67 69.7 -73.34 66.4 -73 63 C-72.34 63 -71.68 63 -71 63 C-71 61.35 -71 59.7 -71 58 C-70.34 58 -69.68 58 -69 58 C-68.71125 57.13375 -68.4225 56.2675 -68.125 55.375 C-67.08333333 52.25 -66.04166667 49.125 -65 46 C-64.34 46 -63.68 46 -63 46 C-61.92474806 43.34771188 -60.90543849 40.71631546 -60 38 C-58.37897032 36.28891311 -56.70496537 34.62746694 -55 33 C-51.99537378 30.07444289 -49.20348851 27.07588358 -46.5 23.875 C-43.90965008 20.87267722 -41.56054832 18.83113913 -38 17 C-37.34 16.34 -36.68 15.68 -36 15 C-33.98872941 13.92732235 -31.93725695 12.97047386 -29.875 12 C-27.83448849 11.02859623 -27.83448849 11.02859623 -26 9 C-24.21149416 8.23309765 -22.39429702 7.53181965 -20.5625 6.875 C-19.59441406 6.52179687 -18.62632813 6.16859375 -17.62890625 5.8046875 C-15 5 -15 5 -12 5 C-11.67 4.34 -11.34 3.68 -11 3 C-9.02 3 -7.04 3 -5 3 C-5 2.34 -5 1.68 -5 1 C-3.35 1.33 -1.7 1.66 0 2 C0 1.34 0 0.68 0 0 Z M12 23.9375 C11.24976563 24.02451172 10.49953125 24.11152344 9.7265625 24.20117188 C6.05525089 24.34824832 6.05525089 24.34824832 3 26 C1.329375 26.2165625 1.329375 26.2165625 -0.375 26.4375 C-4.08510547 26.75300217 -4.08510547 26.75300217 -7 29 C-7.845625 29.226875 -8.69125 29.45375 -9.5625 29.6875 C-16.78939901 32.44686144 -22.89164402 37.16592696 -27.55078125 43.32421875 C-29 45 -29 45 -31.41015625 46.80859375 C-34.44022867 49.37250118 -36.10049768 51.96907257 -38.125 55.375 C-38.78757812 56.47585937 -39.45015625 57.57671875 -40.1328125 58.7109375 C-43.60241056 64.82265626 -45.86830734 70.06838244 -47 77 C-47.48953093 79.30778867 -48.0157497 81.02974943 -49.125 83.125 C-50.45015196 87.47907071 -49.6395152 91.54931988 -49 96 C-49.66 96 -50.32 96 -51 96 C-51 103.59 -51 111.18 -51 119 C-50.34 119 -49.68 119 -49 119 C-49.33 119.99 -49.66 120.98 -50 122 C-50.25974575 126.67542359 -49.82452577 129.7427732 -48 134 C-47.7119805 135.35061572 -47.44332342 136.70541768 -47.1875 138.0625 C-45.71561451 145.06867493 -42.97213953 152.04179071 -39 158 C-38.525625 158.74636719 -38.05125 159.49273437 -37.5625 160.26171875 C-36.7890625 161.46248047 -36.7890625 161.46248047 -36 162.6875 C-35.484375 163.49574219 -34.96875 164.30398437 -34.4375 165.13671875 C-33.963125 165.75160156 -33.48875 166.36648437 -33 167 C-32.34 167 -31.68 167 -31 167 C-30.73058594 167.59039062 -30.46117188 168.18078125 -30.18359375 168.7890625 C-26.06418238 176.48406856 -18.53314701 180.25618525 -11 184 C-9.865625 184.598125 -8.73125 185.19625 -7.5625 185.8125 C-2.84371262 187.99925513 1.85141382 188.50174972 7 189 C7.66 188.67 8.32 188.34 9 188 C9 188.66 9 189.32 9 190 C15.6 190 22.2 190 29 190 C29 189.34 29 188.68 29 188 C29.70125 188.185625 30.4025 188.37125 31.125 188.5625 C34.33888698 189.05156976 36.83560336 188.66231558 40 188 C40 187.34 40 186.68 40 186 C40.53625 186.226875 41.0725 186.45375 41.625 186.6875 C45.08494555 187.14275599 46.9904351 185.65833168 50 184 C50.845625 183.67 51.69125 183.34 52.5625 183 C55.24872382 181.89795946 57.6050111 180.6422781 60 179 C60 178.34 60 177.68 60 177 C60.5775 176.896875 61.155 176.79375 61.75 176.6875 C64.38127015 175.88350079 65.98688093 174.86932485 68 173 C68 172.01 68 171.02 68 170 C68.99 169.67 69.98 169.34 71 169 C71 168.34 71 167.68 71 167 C71.99 166.67 72.98 166.34 74 166 C74 165.34 74 164.68 74 164 C74.556875 163.484375 75.11375 162.96875 75.6875 162.4375 C79.55900692 158.35672243 82.22453936 153.32638193 84 148 C84.33 147.195625 84.66 146.39125 85 145.5625 C86.85913228 140.79847354 87.39725268 136.05742676 88 131 C88.86956522 124.26086957 88.86956522 124.26086957 90 122 C90.0975635 119.84550346 90.13077127 117.68795346 90.1328125 115.53125 C90.13474609 113.59185547 90.13474609 113.59185547 90.13671875 111.61328125 C90.13462402 110.93861816 90.1325293 110.26395508 90.13037109 109.56884766 C90.12502093 107.50806311 90.13032035 105.44749651 90.13671875 103.38671875 C90.13542969 102.09378906 90.13414062 100.80085938 90.1328125 99.46875 C90.13112061 97.68114258 90.13112061 97.68114258 90.12939453 95.85742188 C90.19633896 93.05409934 90.19633896 93.05409934 89 91 C88.9603287 89.33380554 88.95615553 87.66608987 89 86 C88.34 86 87.68 86 87 86 C87.20625 84.9275 87.4125 83.855 87.625 82.75 C88.0164988 78.83501198 87.8078048 78.21387519 86 75 C85.835 73.824375 85.67 72.64875 85.5 71.4375 C85.23464413 67.88704437 85.23464413 67.88704437 83 65 C82.731875 64.113125 82.46375 63.22625 82.1875 62.3125 C79.81675138 55.69935911 74.36184227 45.13674041 67.87890625 41.9609375 C66 41 66 41 65 38 C64.34 38 63.68 38 63 38 C61.9171875 36.88625 61.9171875 36.88625 60.8125 35.75 C57.00085595 32.02305915 53.09686103 29.69895368 48 28 C47.236875 27.62875 46.47375 27.2575 45.6875 26.875 C42.4247298 25.81270273 40.3030832 26.23184112 37 27 C37 26.34 37 25.68 37 25 C34.35425814 24.66592662 31.70841381 24.33270624 29.0625 24 C28.30775391 23.90460937 27.55300781 23.80921875 26.77539062 23.7109375 C21.56420462 23.05661818 17.20100991 23.30748076 12 23.9375 Z " fill="#323232" transform="translate(109,16)"/>
<path d="" fill="#333333" transform="translate(0,0)"/>
<path d="" fill="#333333" transform="translate(0,0)"/>
<path d="" fill="#333333" transform="translate(0,0)"/>
<path d="" fill="#333333" transform="translate(0,0)"/>
<path d="" fill="#333333" transform="translate(0,0)"/>
<path d="" fill="#333333" transform="translate(0,0)"/>
<path d="" fill="#333333" transform="translate(0,0)"/>
<path d="" fill="#333333" transform="translate(0,0)"/>
<path d="" fill="#333333" transform="translate(0,0)"/>
<path d="" fill="#333333" transform="translate(0,0)"/>
<path d="" fill="#333333" transform="translate(0,0)"/>
<path d="" fill="#333333" transform="translate(0,0)"/>
<path d="" fill="#333333" transform="translate(0,0)"/>
<path d="" fill="#323232" transform="translate(0,0)"/>
<path d="" fill="#333333" transform="translate(0,0)"/>
<path d="" fill="#333333" transform="translate(0,0)"/>
<path d="" fill="#333333" transform="translate(0,0)"/>
<path d="" fill="#323232" transform="translate(0,0)"/>
<path d="" fill="#333333" transform="translate(0,0)"/>
<path d="" fill="#333333" transform="translate(0,0)"/>
<path d="" fill="#333333" transform="translate(0,0)"/>
<path d="" fill="#333333" transform="translate(0,0)"/>
<path d="" fill="#333333" transform="translate(0,0)"/>
<path d="" fill="#333333" transform="translate(0,0)"/>
<path d="" fill="#333333" transform="translate(0,0)"/>
<path d="" fill="#333333" transform="translate(0,0)"/>
<path d="" fill="#333333" transform="translate(0,0)"/>
<path d="" fill="#333333" transform="translate(0,0)"/>
<path d="" fill="#333333" transform="translate(0,0)"/>
<path d="" fill="#333333" transform="translate(0,0)"/>
<path d="" fill="#333333" transform="translate(0,0)"/>
<path d="" fill="#333333" transform="translate(0,0)"/>
</svg>
